PathFileType	4	(X/Y/Z)	C:/Users/beibeiliu/ov580/test_trc/User3\sequence.12_training_dense_right.trc
DataRate	CameraRate	NumFrames	NumMarkers	Units	OrigDataRate	OrigDataStartFrame	OrigNumFrames
120	120	12	19	mm	120	188	250
Frame#	Time	ThumbCMC			ThumbMCP			ThumbIP			ThumbTip			IndexMCP			IndexPIP			IndexTip			MiddleMCP			MiddlePIP			MiddleTip			RingMCP			RingPIP			RingTip			PinkyMCP			PinkyPIP			PinkyTip			BackHand1			BackHand2			BackHand3	
		X0	Y0	Z0	X1	Y1	Z1	X2	Y2	Z2	X3	Y3	Z3	X4	Y4	Z4	X5	Y5	Z5	X6	Y6	Z6	X7	Y7	Z7	X8	Y8	Z8	X9	Y9	Z9	X10	Y10	Z10	X11	Y11	Z11	X12	Y12	Z12	X13	Y13	Z13	X14	Y14	Z14	X15	Y15	Z15	X16	Y16	Z16	X17	Y17	Z17	X18	Y18	Z18	
187	1.55833	175.45	11.6568	23.7309	149.82	19.8426	4.81086	122.656	22.5434	-7.12992	99.6588	20.9348	-13.4232	109.307	-11.6211	-16.9574	81.6641	-10.684	-30.2126	61.3029	-18.2124	-35.1818	100.538	-29.096	-14.294	72.4	-27.3578	-25.0344	43.6944	-30.4611	-34.0056	100.689	-43.1158	-3.00916	81.8131	-42.4552	-9.42185	53.5183	-45.0061	-19.317	108.671	-57.2615	15.3623	88.4417	-58.0321	7.29218	68.3936	-58.8517	-3.00533	154.958	-49.0257	12.8972	179.29	-48.619	23.7708	169.587	-16.9839	4.29303	
188	1.56667	175.032	9.67432	24.3156	150.836	23.0207	4.88048	120.98	18.0596	-8.3051	99.2853	18.2162	-13.3487	108.483	-12.5289	-19.7313	82.7601	-15.5898	-27.5116	62.4935	-21.7355	-34.4356	99.9426	-31.4007	-17.1261	77.4899	-34.8756	-21.3927	44.4913	-34.8005	-34.5747	104.289	-44.2966	-2.97765	82.9926	-48.2612	-9.86879	55.6077	-50.654	-18.5426	113.941	-55.6221	15.8819	91.8097	-57.7282	5.09226	69.826	-59.4668	-4.60454	157.227	-49.0054	15.0114	180.464	-48.7183	22.8277	174.459	-22.0213	7.04348	
189	1.575	172.2	12.4692	22.5819	146.759	19.8546	6.03034	116.443	18.167	-6.15847	95.8073	13.598	-8.47711	108.573	-12.6387	-12.7724	80.1928	-14.9846	-22.6005	59.5369	-19.3004	-28.1737	98.7975	-32.8441	-11.964	71.7693	-32.6769	-20.0112	45.3122	-34.4071	-27.6818	100.656	-45.9095	0.539851	80.2121	-46.7201	-5.94623	54.4926	-52.2519	-9.50403	114.569	-59.9756	22.6617	90.9837	-57.1758	10.1262	71.0337	-59.7568	4.59595	156.414	-50.7405	16.1233	182.734	-48.075	25.7508	172.149	-17.8269	7.5067	
190	1.58333	173.621	11.5471	27.9777	144.838	18.5886	10.5862	116.448	18.4145	1.61896	91.5494	12.7082	-2.379	102.024	-12.2566	-6.82951	76.6003	-14.9651	-11.5996	52.3467	-21.4061	-15.8323	97.3543	-32.8022	-1.82424	66.8585	-35.1714	-6.99072	36.9216	-36.919	-13.3563	96.4284	-45.1967	9.22635	76.2793	-46.6199	4.89441	46.6637	-49.7405	0.548315	114.012	-55.4342	27.9215	89.9626	-57.8474	18.7945	67.2358	-59.6278	14.9445	150.815	-50.6302	20.2063	182.414	-48.3367	29.5674	169.287	-17.0914	9.30101	
191	1.59167	167.181	8.46179	26.3971	145.18	17.993	15.2253	110.315	17.8571	3.60347	90.9629	17.0309	3.89777	94.7635	-15.6432	1.54059	71.7682	-15.6411	-2.35737	49.437	-17.994	-5.08217	86.595	-33.503	5.9546	63.539	-33.4271	3.95766	31.6776	-31.4856	-0.349239	95.4922	-46.3468	18.747	70.8762	-44.1684	14.6178	43.2598	-43.8589	12.7109	107.284	-58.4704	33.9862	84.08	-59.6281	28.9265	60.1643	-54.3894	23.1298	148.662	-48.0329	20.703	177.12	-47.4142	30.673	161.389	-21.4904	12.8214	
192	1.6	166.532	9.31936	25.9212	140.78	21.6932	12.7707	110.072	16.0592	7.66692	88.2374	18.0121	7.91646	92.5121	-9.81526	4.0087	69.7824	-14.1221	5.64343	40.6825	-16.0006	4.53502	83.2343	-31.3567	11.7085	56.6978	-27.6396	10.8791	25.971	-25.3444	8.79034	87.123	-41.4026	22.5107	66.5888	-43.7673	23.097	36.8186	-38.0311	20.5424	101.958	-51.733	37.0637	78.5426	-54.7366	34.1245	56.7622	-55.4849	33.203	143.446	-48.0149	26.044	169.736	-48.0749	30.6941	162.793	-20.1698	13.3478	
193	1.60833	167.404	8.19143	29.1289	137.126	20.1321	13.0267	111.334	22.8148	10.3609	85.9841	20.8269	10.4835	92.4007	-7.86048	7.67084	65.8822	-8.19812	7.63605	37.2377	-8.52933	8.92722	79.3165	-25.2457	14.4354	56.6114	-22.4084	14.998	24.505	-18.6462	16.222	88.0942	-39.9708	27.8375	61.0262	-35.0485	26.2025	32.861	-33.1792	26.8547	99.2188	-53.5726	44.4113	72.7061	-51.5257	39.48	49.9955	-49.7401	39.0071	136.688	-50.5402	26.2237	169.283	-52.9867	33.5418	159.617	-20.9707	14.7069	
194	1.61667	167.263	9.91275	25.9819	139.565	22.6435	12.1973	108.956	23.7548	8.51553	88.291	23.0216	12.2677	87.44	-7.39956	9.42571	62.3635	-4.08603	8.89671	39.139	-6.29067	13.5863	76.3261	-23.8342	16.1271	51.9259	-20.6477	18.7121	22.4079	-14.1242	19.1995	83.3344	-35.0678	29.2648	60.4144	-32.7794	30.5682	34.4123	-29.6912	32.4066	94.3936	-45.6205	41.0644	74.2932	-47.7367	42.9864	52.4871	-41.3675	39.4775	134.188	-46.0789	26.6165	165.014	-51.9825	30.963	155.058	-20.1676	12.1537	
195	1.625	166.35	6.83517	24.7327	141.361	20.4056	11.7324	114.499	25.287	9.16919	90.8887	23.4907	12.1037	88.1969	-2.0311	7.97805	63.2341	2.29819	6.33366	35.7118	5.32072	9.29372	77.6746	-15.7027	13.3806	52.0917	-11.4088	16.5197	24.4062	-8.24588	20.4506	81.0609	-31.2837	29.7093	60.5362	-26.8033	30.0284	33.357	-20.664	31.3827	92.4882	-43.6383	40.8785	72.2084	-42.9717	42.7293	48.4996	-33.601	37.3678	136.781	-42.2131	25.445	163.063	-50.938	31.5961	156.149	-20.7206	13.5799	
196	1.63333	170.712	6.86413	23.8481	145.511	20.5745	9.45395	118.461	26.137	6.6146	95.1502	30.8328	6.16006	90.3103	1.68638	3.34522	66.5977	6.71041	3.80238	40.8329	10.9638	4.82531	78.1417	-12.9759	12.3317	53.2335	-7.43256	14.0435	21.9045	1.01643	16.9194	83.8069	-25.5788	24.4789	60.0566	-23.0486	27.2253	34.594	-16.0282	29.4972	95.0876	-38.033	38.9721	68.701	-35.65	39.3596	49.9381	-34.2317	37.4617	133.082	-46.8932	23.4151	165.302	-52.8882	31.9155	156.295	-21.4185	12.2071	
197	1.64167	175.663	4.98908	22.7117	149.654	20.8083	4.64203	122.005	27.4261	-0.408179	102.837	31.6169	3.00694	96.7366	3.83286	0.863383	68.3898	9.95044	-0.107468	47.2644	12.8411	2.50536	86.1426	-9.45223	7.70345	61.1973	-1.58943	9.25824	25.8037	8.06898	12.5524	86.5311	-20.9582	21.5266	61.11	-16.7587	24.0425	39.8541	-7.01809	22.8843	95.4604	-39.8053	39.0618	70.9962	-30.8077	36.1666	52.6182	-23.6433	33.9584	134.451	-43.2918	22.773	167.393	-50.7804	29.6281	160.268	-20.7499	7.18453	
198	1.65	178.938	1.9386	21.0964	160.149	18.4875	5.37991	130.25	27.7052	-4.01712	106.444	35.7869	-6.32856	104.325	6.1744	-5.27267	75.1308	12.5448	-5.09435	49.8271	21.3193	-7.32983	86.9396	-9.79283	6.05164	63.4762	5.58214	2.81695	34.28	15.6646	3.27169	89.314	-20.5567	19.9966	64.8478	-10.6515	17.748	45.6729	-0.149209	17.4813	95.8067	-35.4821	34.0179	72.8234	-28.0989	32.4702	55.619	-23.0327	28.7477	138.821	-44.1574	21.6224	164.198	-52.1384	25.9178	163.342	-24.967	8.97049	
